<svg version="1.1" xmlns="http://www.w3.org/2000/svg" xmlns:xlink="http://www.w3.org/1999/xlink" width="266.41522" height="60.41164" viewBox="0,0,266.41522,60.41164"><g transform="translate(-165.53838,-178.15884)"><g data-paper-data="{&quot;isPaintingLayer&quot;:true}" fill-rule="nonzero" stroke-linejoin="miter" stroke-miterlimit="10" stroke-dasharray="" stroke-dashoffset="0" style="mix-blend-mode: normal"><path d="M253.40199,210.91484l-12.53072,22.90572c0,0 -5.7815,-4.99747 -11.2387,-7.0974c-5.75345,-2.21392 -21.83507,-5.54574 -34.45631,-9.73837c-13.68663,-4.54654 -23.73598,-9.88125 -23.73598,-9.88125l12.53073,-22.90571z" data-paper-data="{&quot;index&quot;:null}" fill="#1d1d1d" stroke="none" stroke-width="0" stroke-linecap="butt"/><path d="M340.72446,203.47507l0.15766,30.37057c0,0 -10.42375,-3.00176 -18.49794,-2.97437c-8.51249,0.02887 -30.37987,3.23175 -48.60584,4.02088c-19.76445,0.85575 -35.62268,-0.69813 -35.62268,-0.69813l-0.15766,-30.37057z" data-paper-data="{&quot;index&quot;:null}" fill="#1d1d1d" stroke="none" stroke-width="0" stroke-linecap="butt"/><path d="M426.37675,208.33674l-78.80506,25.23375" data-paper-data="{&quot;index&quot;:null}" fill="none" stroke="#777777" stroke-width="10" stroke-linecap="round"/><path d="M405.17959,188.83755l19.18619,21.0171c0,0 -15.3869,4.89486 -36.34293,9.06653c-14.06973,2.80083 -26.2418,10.09276 -37.7807,11.96519c-4.30978,0.69935 -11.40436,0.50931 -13.7999,1.06171c-8.3557,1.92678 -18.38448,2.42073 -18.38448,2.42073l-19.18619,-21.0171z" data-paper-data="{&quot;index&quot;:null}" fill="#1d1d1d" stroke="none" stroke-width="0" stroke-linecap="butt"/><path d="M347.89685,233.04785l-109.39952,0.15225" data-paper-data="{&quot;index&quot;:null}" fill="none" stroke="#777777" stroke-width="10" stroke-linecap="round"/><path d="M171.41558,211.06166l68.58294,21.96057" data-paper-data="{&quot;index&quot;:null}" fill="none" stroke="#777777" stroke-width="10" stroke-linecap="round"/><path d="M425.87693,186.27518l0.04073,21.05547c0,0 -25.31436,-2.10202 -44.94928,-2.09929c-20.70081,0.00289 -73.91357,2.17935 -118.24401,2.68976c-48.0724,0.55349 -86.61859,-0.55569 -86.61859,-0.55569l-0.04072,-21.05546z" data-paper-data="{&quot;index&quot;:null}" fill="#2f2f2f" stroke="none" stroke-width="0" stroke-linecap="butt"/><path d="M177.97372,183.19532l243.40761,-0.03647" data-paper-data="{&quot;index&quot;:null}" fill="none" stroke="#777777" stroke-width="10" stroke-linecap="round"/><path d="M179.29492,184.41936l-8.75653,25.54413" data-paper-data="{&quot;index&quot;:null}" fill="none" stroke="#777777" stroke-width="10" stroke-linecap="round"/><path d="M418.19706,185.10271l8.75655,20.63437" data-paper-data="{&quot;index&quot;:null}" fill="none" stroke="#777777" stroke-width="10" stroke-linecap="round"/></g></g></svg>