<svg version="1.1" xmlns="http://www.w3.org/2000/svg" xmlns:xlink="http://www.w3.org/1999/xlink" width="237.05514" height="51.8418" viewBox="0,0,237.05514,51.8418"><g transform="translate(-231.66328,-18.66439)"><g data-paper-data="{&quot;isPaintingLayer&quot;:true}" stroke="none" stroke-width="1" stroke-linecap="butt" stroke-dasharray="" stroke-dashoffset="0" style="mix-blend-mode: normal"><path d="M231.66328,26.89326c0,-4.54438 5.42313,-8.22886 12.11196,-8.22886h212.83122c6.68882,0 12.11196,3.68447 12.11196,8.22886v35.38408c0,4.54438 -5.42313,8.22886 -12.11196,8.22886h-212.83122c-6.68882,0 -12.11196,-3.68447 -12.11196,-8.22886z" data-paper-data="{&quot;index&quot;:null}" fill="#ffffff" fill-rule="evenodd" stroke-linejoin="round" stroke-miterlimit="2"/><path d="M244.36534,49.69839c-4.42915,-4.48547 -4.41207,-11.72359 0.0523,-16.18795c4.48146,-4.48146 11.7588,-4.48146 16.24125,0.00101l0.01509,0.01509c4.50761,-3.9947 11.41383,-3.83479 15.72934,0.48073c4.31451,4.31451 4.47542,11.22175 0.48073,15.72934l0.01509,0.01509l-14.22883,14.22883c-0.53302,0.53302 -1.25714,0.83273 -2.01143,0.83273c-0.75428,0 -1.47839,-0.2997 -2.01143,-0.83273l-14.22883,-14.22883z" data-paper-data="{&quot;index&quot;:null}" fill="#ff363f" fill-rule="evenodd" stroke-linejoin="round" stroke-miterlimit="2"/><path d="M432.37126,28.87077c0.37974,-1.17121 1.47235,-1.96535 2.70485,-1.96535c1.2325,0 2.32511,0.79414 2.70485,1.96535c1.00733,3.10059 2.06261,6.34774 2.71418,8.35306c0.38108,1.17256 1.47367,1.96535 2.70619,1.96535c2.10793,0 5.52296,0 8.7821,0c1.2325,0 2.32377,0.79414 2.70485,1.96535c0.38108,1.17256 -0.03597,2.45569 -1.03265,3.18054c-2.6369,1.91604 -5.40037,3.9227 -7.10589,5.16186c-0.99666,0.72485 -1.41371,2.00932 -1.03265,3.18054c0.65157,2.00531 1.70685,5.25248 2.71285,8.35306c0.38108,1.17121 -0.03597,2.45569 -1.03265,3.18054c-0.99666,0.72351 -2.34776,0.72351 -3.34442,0c-2.6369,-1.91604 -5.39905,-3.92403 -7.10457,-5.16321c-0.99666,-0.72351 -2.34776,-0.72351 -3.34442,0c-1.70552,1.23916 -4.46767,3.24716 -7.10457,5.16321c-0.99666,0.72351 -2.34776,0.72351 -3.34442,0c-0.99666,-0.72485 -1.41371,-2.00932 -1.03265,-3.18054c1.00599,-3.10059 2.06129,-6.34774 2.71285,-8.35306c0.38108,-1.17121 -0.03597,-2.45569 -1.03265,-3.18054c-1.70552,-1.23916 -4.46901,-3.24582 -7.10589,-5.16186c-0.99666,-0.72485 -1.41371,-2.00798 -1.03265,-3.18054c0.38108,-1.17121 1.47235,-1.96535 2.70485,-1.96535c3.25914,0 6.67419,0 8.7821,0c1.2325,0 2.32511,-0.7928 2.70619,-1.96535c0.65157,-2.00531 1.70685,-5.25248 2.71418,-8.35306z" data-paper-data="{&quot;index&quot;:null}" fill="#ffbc3f" fill-rule="evenodd" stroke-linejoin="round" stroke-miterlimit="2"/><text transform="translate(289.49575,55.06602) scale(0.66134,0.66134)" font-size="40" xml:space="preserve" fill="#000000" fill-rule="nonzero" stroke="none" stroke-width="1" stroke-linecap="butt" stroke-linejoin="miter" stroke-miterlimit="10" stroke-dasharray="" stroke-dashoffset="0" font-family="Sans Serif" font-weight="normal" text-anchor="start" style="mix-blend-mode: normal"><tspan x="0" dy="0">Thanks :)</tspan></text></g></g></svg>