<svg version="1.1" xmlns="http://www.w3.org/2000/svg" xmlns:xlink="http://www.w3.org/1999/xlink" width="75" height="75" viewBox="0,0,75,75"><defs><radialGradient cx="240.6068" cy="178.17961" r="37.5" gradientUnits="userSpaceOnUse" id="color-1"><stop offset="0" stop-color="#ffff9d"/><stop offset="1" stop-color="#ffff9d" stop-opacity="0"/></radialGradient><linearGradient x1="230.83619" y1="167.32779" x2="251.0554" y2="192.67226" gradientUnits="userSpaceOnUse" id="color-2"><stop offset="0" stop-color="#be9311"/><stop offset="1" stop-color="#8d6500"/></linearGradient><linearGradient x1="228.4995" y1="167.32778" x2="246.48391" y2="192.67225" gradientUnits="userSpaceOnUse" id="color-3"><stop offset="0" stop-color="#e7b215"/><stop offset="1" stop-color="#b07e00"/></linearGradient><radialGradient cx="232.42915" cy="170.29105" r="14.47973" gradientUnits="userSpaceOnUse" id="color-4"><stop offset="0" stop-color="#fffd00"/><stop offset="1" stop-color="#ffcf19"/></radialGradient><linearGradient x1="237.4867" y1="170.46982" x2="237.4867" y2="188.86486" gradientUnits="userSpaceOnUse" id="color-5"><stop offset="0" stop-color="#e2ae13"/><stop offset="1" stop-color="#b28001"/></linearGradient></defs><g transform="translate(-202.5,-142.5)"><g data-paper-data="{&quot;isPaintingLayer&quot;:true}" fill-rule="nonzero" stroke="none" stroke-width="0" stroke-linecap="butt" stroke-linejoin="miter" stroke-miterlimit="10" stroke-dasharray="" stroke-dashoffset="0" style="mix-blend-mode: normal"><path d="M202.5,180c0,-20.71068 16.78932,-37.5 37.5,-37.5c20.71067,0 37.5,16.78932 37.5,37.5c0,20.71068 -16.78933,37.5 -37.5,37.5c-20.71068,0 -37.5,-16.78932 -37.5,-37.5z" fill="url(#color-1)"/><path d="M231.06456,192.96513c-5.58338,-6.99868 -5.68562,-18.47691 -0.22837,-25.63734c2.7666,-3.63004 1.70453,-5.24053 6.26778,-5.33015c4.58757,-0.0901 10.86154,1.45042 13.72305,5.03728c5.58339,6.99868 5.68563,18.47691 0.22837,25.63734c0,0 -2.89483,5.48346 -13.70795,5.44474c-3.20411,-6.77606 -0.69952,1.84681 -6.28289,-5.15187z" data-paper-data="{&quot;origPos&quot;:null,&quot;origRot&quot;:0}" fill="url(#color-2)"/><path d="M228.70263,192.96512c-4.96626,-6.99868 -5.0572,-18.47691 -0.20313,-25.63734c4.85407,-7.16043 12.81502,-7.29155 17.78127,-0.29287c4.96626,6.99868 5.0572,18.47691 0.20313,25.63734c-4.85407,7.16043 -12.81502,7.29155 -17.78127,0.29287z" data-paper-data="{&quot;origPos&quot;:null,&quot;origRot&quot;:0}" fill="url(#color-3)"/><path d="M230.47203,190.35501c-3.96646,-5.58972 -4.03909,-14.75717 -0.16223,-20.47608c3.87687,-5.71891 10.23512,-5.82363 14.20158,-0.23391c3.96646,5.58972 4.03909,14.75717 0.16223,20.47608c-3.87687,5.71891 -10.23512,5.82363 -14.20158,0.23391z" data-paper-data="{&quot;origPos&quot;:null,&quot;origRot&quot;:0}" fill="url(#color-4)"/><path d="M235.22744,188.86486v-18.39504h4.51854v18.39504z" data-paper-data="{&quot;origPos&quot;:null}" fill="url(#color-5)"/></g></g></svg>