<svg version="1.1" xmlns="http://www.w3.org/2000/svg" xmlns:xlink="http://www.w3.org/1999/xlink" width="452.66971" height="340.82994" viewBox="0,0,452.66971,340.82994"><g transform="translate(-225.94863,-116.41566)"><g data-paper-data="{&quot;isPaintingLayer&quot;:true}" fill-rule="nonzero" stroke-linejoin="miter" stroke-miterlimit="10" stroke-dasharray="" stroke-dashoffset="0" style="mix-blend-mode: normal"><path d="M670.34752,299.39559l2.32735,75.37184c0,0 -96.82347,-19.51011 -147.41948,-54.799c-46.6576,-32.54198 -98.93687,-77.42727 -121.28555,-91.7465c-21.19797,-13.58194 -53.54559,-23.25218 -53.54559,-23.25218l50.22521,-78.37483z" data-paper-data="{&quot;index&quot;:null}" fill="#2f2f2f" stroke="none" stroke-width="0" stroke-linecap="butt"/><path d="M405.10385,125.36401l266.01449,170.45517" data-paper-data="{&quot;index&quot;:null}" fill="none" stroke="#777777" stroke-width="15" stroke-linecap="round"/><path d="M670.49293,351.76091l3.31522,85.68023c0,0 -125.18711,-21.37784 -175.94459,-56.55241c-10.94225,-7.58291 -26.30378,-9.1428 -36.80326,-9.56553c-34.41298,-1.38552 -60.48053,7.55715 -77.62369,-3.43006c-15.22293,-9.75651 -41.98725,21.21655 -52.50633,17.43612c-4.14509,-1.4897 -8.20175,-135.94757 -8.20175,-135.94757l46.23433,-72.16672z" data-paper-data="{&quot;index&quot;:null}" fill="#1d1d1d" stroke="none" stroke-width="0" stroke-linecap="butt"/><path d="M406.34712,123.91566l-172.89849,264.43295" data-paper-data="{&quot;index&quot;:null}" fill="none" stroke="#777777" stroke-width="15" stroke-linecap="round"/><path d="M406.96618,137.53182l73.8753,47.38879c0,0 -21.22557,47.23056 -56.6262,97.74845c-32.64502,46.58556 -77.64575,98.76549 -92.01434,121.08247c-13.62876,21.1679 -23.37047,53.49407 -23.37047,53.49407l-78.26363,-50.39831z" data-paper-data="{&quot;index&quot;:null}" fill="#2f2f2f" stroke="none" stroke-width="0" stroke-linecap="butt"/></g></g></svg>