<svg version="1.1" xmlns="http://www.w3.org/2000/svg" xmlns:xlink="http://www.w3.org/1999/xlink" width="484.62844" height="168.02426" viewBox="0,0,484.62844,168.02426"><g transform="translate(-78.32516,-82.15882)"><g data-paper-data="{&quot;isPaintingLayer&quot;:true}" fill-rule="nonzero" stroke-linejoin="miter" stroke-miterlimit="10" stroke-dasharray="" stroke-dashoffset="0" style="mix-blend-mode: normal"><path d="M140.95691,222.52743l-8.71514,22.90572c0,0 -4.02104,-4.99747 -7.81652,-7.0974c-4.00153,-2.21392 -15.18632,-5.54574 -23.96442,-9.73837c-9.51906,-4.54654 -16.5084,-9.88125 -16.5084,-9.88125l8.71513,-22.90572z" data-paper-data="{&quot;index&quot;:null}" fill="#1d1d1d" stroke="none" stroke-width="0" stroke-linecap="butt"/><path d="M201.68981,215.08766l0.10965,30.37057c0,0 -7.24973,-3.00176 -12.86534,-2.97438c-5.92045,0.02887 -21.12924,3.23175 -33.80542,4.02089c-13.74621,0.85575 -24.77563,-0.69813 -24.77563,-0.69813l-0.10965,-30.37057z" data-paper-data="{&quot;index&quot;:null}" fill="#1d1d1d" stroke="none" stroke-width="0" stroke-linecap="butt"/><path d="M261.2611,219.94933l-54.80903,25.23375" data-paper-data="{&quot;index&quot;:null}" fill="none" stroke="#777777" stroke-width="10" stroke-linecap="round"/><path d="M246.51845,200.45016l13.34402,21.0171c0,0 -10.70161,4.89486 -25.27655,9.06653c-9.78552,2.80083 -18.25121,10.09276 -26.27653,11.96519c-2.99746,0.69935 -7.93175,0.50931 -9.59784,1.06171c-5.8114,1.92678 -12.78643,2.42073 -12.78643,2.42073l-13.34402,-21.01711z" data-paper-data="{&quot;index&quot;:null}" fill="#1d1d1d" stroke="none" stroke-width="0" stroke-linecap="butt"/><path d="M130.59071,244.81267l76.08752,-0.15225" data-paper-data="{&quot;index&quot;:null}" fill="none" stroke="#777777" stroke-width="10" stroke-linecap="round"/><path d="M83.93525,222.67425l47.69953,21.96057" data-paper-data="{&quot;index&quot;:null}" fill="none" stroke="#777777" stroke-width="10" stroke-linecap="round"/><path d="M260.91347,197.88778l0.02833,21.05547c0,0 -17.60617,-2.10202 -31.26229,-2.09929c-14.39744,0.00288 -51.40699,2.17934 -82.23887,2.68975c-33.43442,0.55349 -60.24335,-0.55569 -60.24335,-0.55569l-0.02832,-21.05546z" data-paper-data="{&quot;index&quot;:null}" fill="#2f2f2f" stroke="none" stroke-width="0" stroke-linecap="butt"/><path d="M88.49645,194.80791l166.29033,-0.03646" data-paper-data="{&quot;index&quot;:null}" fill="none" stroke="#777777" stroke-width="10" stroke-linecap="round"/><path d="M89.41534,196.03194l-6.09018,25.54413" data-paper-data="{&quot;index&quot;:null}" fill="none" stroke="#777777" stroke-width="10" stroke-linecap="round"/><path d="M255.57213,196.7153l6.09018,20.63437" data-paper-data="{&quot;index&quot;:null}" fill="none" stroke="#777777" stroke-width="10" stroke-linecap="round"/><path d="M384.40198,114.91481l-12.53072,22.90572c0,0 -5.7815,-4.99747 -11.2387,-7.0974c-5.75345,-2.21392 -21.83507,-5.54574 -34.45631,-9.73837c-13.68663,-4.54654 -23.73598,-9.88125 -23.73598,-9.88125l12.53073,-22.90571z" data-paper-data="{&quot;index&quot;:null}" fill="#1d1d1d" stroke="none" stroke-width="0" stroke-linecap="butt"/><path d="M471.72445,107.47505l0.15766,30.37057c0,0 -10.42375,-3.00176 -18.49794,-2.97437c-8.51249,0.02887 -30.37987,3.23175 -48.60584,4.02088c-19.76445,0.85575 -35.62268,-0.69813 -35.62268,-0.69813l-0.15766,-30.37057z" data-paper-data="{&quot;index&quot;:null}" fill="#1d1d1d" stroke="none" stroke-width="0" stroke-linecap="butt"/><path d="M557.37675,112.33671l-78.80506,25.23375" data-paper-data="{&quot;index&quot;:null}" fill="none" stroke="#777777" stroke-width="10" stroke-linecap="round"/><path d="M536.17959,92.83753l19.18619,21.0171c0,0 -15.3869,4.89486 -36.34293,9.06653c-14.06973,2.80083 -26.2418,10.09276 -37.7807,11.96519c-4.30978,0.69935 -11.40436,0.50931 -13.7999,1.06171c-8.3557,1.92678 -18.38448,2.42073 -18.38448,2.42073l-19.18619,-21.0171z" data-paper-data="{&quot;index&quot;:null}" fill="#1d1d1d" stroke="none" stroke-width="0" stroke-linecap="butt"/><path d="M369.49732,137.20007l109.39952,-0.15225" data-paper-data="{&quot;index&quot;:null}" fill="none" stroke="#777777" stroke-width="10" stroke-linecap="round"/><path d="M302.41557,115.06163l68.58294,21.96057" data-paper-data="{&quot;index&quot;:null}" fill="none" stroke="#777777" stroke-width="10" stroke-linecap="round"/><path d="M556.87692,90.27516l0.04073,21.05547c0,0 -25.31436,-2.10202 -44.94928,-2.09929c-20.70081,0.00289 -73.91357,2.17935 -118.24401,2.68976c-48.0724,0.55349 -86.61859,-0.55569 -86.61859,-0.55569l-0.04072,-21.05546z" data-paper-data="{&quot;index&quot;:null}" fill="#2f2f2f" stroke="none" stroke-width="0" stroke-linecap="butt"/><path d="M308.97371,87.19529l243.40761,-0.03647" data-paper-data="{&quot;index&quot;:null}" fill="none" stroke="#777777" stroke-width="10" stroke-linecap="round"/><path d="M310.29491,88.41933l-8.75653,25.54413" data-paper-data="{&quot;index&quot;:null}" fill="none" stroke="#777777" stroke-width="10" stroke-linecap="round"/><path d="M549.19705,89.10268l8.75655,20.63437" data-paper-data="{&quot;index&quot;:null}" fill="none" stroke="#777777" stroke-width="10" stroke-linecap="round"/></g></g></svg>