<svg version="1.1" xmlns="http://www.w3.org/2000/svg" xmlns:xlink="http://www.w3.org/1999/xlink" width="75" height="75" viewBox="0,0,75,75"><defs><radialGradient cx="240.6068" cy="178.17961" r="37.5" gradientUnits="userSpaceOnUse" id="color-1"><stop offset="0" stop-color="#ffff9d"/><stop offset="1" stop-color="#ffff9d" stop-opacity="0"/></radialGradient><linearGradient x1="227.70195" y1="167.32777" x2="252.29807" y2="192.67224" gradientUnits="userSpaceOnUse" id="color-2"><stop offset="0" stop-color="#e7b215"/><stop offset="1" stop-color="#b07e00"/></linearGradient><radialGradient cx="233.07628" cy="170.29104" r="19.80299" gradientUnits="userSpaceOnUse" id="color-3"><stop offset="0" stop-color="#fffd00"/><stop offset="1" stop-color="#ffcf19"/></radialGradient><linearGradient x1="239.99316" y1="170.46981" x2="239.99316" y2="188.86485" gradientUnits="userSpaceOnUse" id="color-4"><stop offset="0" stop-color="#e2ae13"/><stop offset="1" stop-color="#b28001"/></linearGradient></defs><g transform="translate(-202.5,-142.5)"><g data-paper-data="{&quot;isPaintingLayer&quot;:true}" fill-rule="nonzero" stroke="none" stroke-width="0" stroke-linecap="butt" stroke-linejoin="miter" stroke-miterlimit="10" stroke-dasharray="" stroke-dashoffset="0" style="mix-blend-mode: normal"><path d="M202.5,180c0,-20.71068 16.78932,-37.5 37.5,-37.5c20.71067,0 37.5,16.78932 37.5,37.5c0,20.71068 -16.78933,37.5 -37.5,37.5c-20.71068,0 -37.5,-16.78932 -37.5,-37.5z" fill="url(#color-1)"/><path d="M227.97976,192.96511c-6.79203,-6.99868 -6.9164,-18.47691 -0.27781,-25.63734c6.6386,-7.16043 17.52627,-7.29155 24.31829,-0.29287c6.79203,6.99868 6.9164,18.47691 0.27781,25.63734c-6.6386,7.16043 -17.52627,7.29155 -24.31829,0.29287z" data-paper-data="{&quot;origPos&quot;:null,&quot;origRot&quot;:0}" fill="url(#color-2)"/><path d="M230.39966,190.355c-5.42467,-5.58972 -5.524,-14.75717 -0.22187,-20.47608c5.30214,-5.71891 13.99792,-5.82363 19.42258,-0.23391c5.42467,5.58972 5.524,14.75717 0.22187,20.47608c-5.30214,5.71891 -13.99792,5.82363 -19.42258,0.23391z" data-paper-data="{&quot;origPos&quot;:null,&quot;origRot&quot;:0}" fill="url(#color-3)"/><path d="M236.90332,188.86485v-18.39504h6.17971v18.39504z" data-paper-data="{&quot;origPos&quot;:null}" fill="url(#color-4)"/></g></g></svg>