<svg version="1.1" xmlns="http://www.w3.org/2000/svg" xmlns:xlink="http://www.w3.org/1999/xlink" width="58.55845" height="28.07713" viewBox="0,0,58.55845,28.07713"><g transform="translate(-210.72078,-165.80475)"><g data-paper-data="{&quot;isPaintingLayer&quot;:true}" stroke-width="1" stroke-miterlimit="10" stroke-dasharray="" stroke-dashoffset="0" style="mix-blend-mode: normal"><path d="M212.98106,168.42594c2.68843,-2.78413 8.1373,-2.27051 8.1373,-2.27051l36.75212,0.22646c0,0 5.84364,-0.32494 8.75851,2.39351c2.91486,2.71844 2.62385,7.65157 2.62385,7.65157l0.02232,6.25011c0,0 0.21709,6.00179 -2.52169,8.76563c-2.73878,2.76384 -8.64827,2.30567 -8.64827,2.30567l-37.46104,0.132c0,0 -4.91527,0.14079 -7.33688,-2.30424c-2.42161,-2.44503 -2.36899,-7.49548 -2.36899,-7.49548l-0.18798,-7.18815c0,0 -0.4577,-5.68245 2.23075,-8.46657z" data-paper-data="{&quot;origRot&quot;:0,&quot;index&quot;:null}" fill="#000000" fill-rule="evenodd" stroke="none" stroke-linecap="round" stroke-linejoin="round" opacity="0.42445"/><text transform="translate(219.18669,186.61211) scale(0.47833,0.47833)" font-size="40" xml:space="preserve" fill="#ffffff" fill-rule="nonzero" stroke="#ffffff" stroke-width="1" stroke-linecap="butt" stroke-linejoin="miter" stroke-miterlimit="10" stroke-dasharray="" stroke-dashoffset="0" font-family="Sans Serif" font-weight="normal" text-anchor="start" style="mix-blend-mode: normal"><tspan x="0" dy="0">chat</tspan></text></g></g></svg>