<svg version="1.1" xmlns="http://www.w3.org/2000/svg" xmlns:xlink="http://www.w3.org/1999/xlink" width="335.49991" height="150.16468" viewBox="0,0,335.49991,150.16468"><g transform="translate(-181.41014,-288.0079)"><g data-paper-data="{&quot;isPaintingLayer&quot;:true}" fill-rule="nonzero" stroke-linejoin="miter" stroke-miterlimit="10" stroke-dasharray="" stroke-dashoffset="0" style="mix-blend-mode: normal"><path d="M307.6932,370.42659l-19.20534,67.74599c0,0 -8.86107,-14.78053 -17.2251,-20.99128c-8.81807,-6.5479 -33.46573,-16.40208 -52.80982,-28.8022c-20.97694,-13.44686 -36.37919,-29.22481 -36.37919,-29.22481l19.20534,-67.74597z" data-paper-data="{&quot;index&quot;:null}" fill="#1d1d1d" stroke="none" stroke-width="0" stroke-linecap="butt"/><path d="M396.61043,332.78645l0.2012,55.72744c0,0 -13.30264,-5.50798 -23.60681,-5.45773c-10.86353,0.05297 -38.77038,5.92998 -62.03011,7.37798c-25.22313,1.57022 -45.46119,-1.28101 -45.46119,-1.28101l-0.2012,-55.72744z" data-paper-data="{&quot;index&quot;:null}" fill="#1d1d1d" stroke="none" stroke-width="0" stroke-linecap="butt"/><path d="M505.91874,341.70719l-100.56997,46.30181" data-paper-data="{&quot;index&quot;:null}" fill="none" stroke="#777777" stroke-width="15" stroke-linecap="round"/><path d="M478.86722,305.92783l24.48515,38.56462c0,0 -19.63655,8.98166 -46.38035,16.63632c-17.95561,5.13929 -33.48943,18.51935 -48.21522,21.95511c-5.50008,1.28326 -14.5541,0.93454 -17.61124,1.94815c-10.66342,3.53549 -23.46202,4.44184 -23.46202,4.44184l-24.48515,-38.56462z" data-paper-data="{&quot;index&quot;:null}" fill="#1d1d1d" stroke="none" stroke-width="0" stroke-linecap="butt"/><path d="M266.14955,387.32934l139.6142,-0.27938" data-paper-data="{&quot;index&quot;:null}" fill="none" stroke="#777777" stroke-width="15" stroke-linecap="round"/><path d="M188.91014,295.57481l310.63351,-0.06691" data-paper-data="{&quot;index&quot;:null}" fill="none" stroke="#777777" stroke-width="15" stroke-linecap="round"/><path d="M509.41005,339.69214l-11.17498,-37.86232" data-paper-data="{&quot;index&quot;:null}" fill="none" stroke="#777777" stroke-width="15" stroke-linecap="round"/><path d="M493.26886,302.72761l10.5625,42.45477c0,0 -33.80735,-3.03666 -58.86518,-3.03076c-26.41809,0.00622 -94.3275,4.7051 -150.90141,5.80705c-61.34935,1.19497 -110.54147,-1.1997 -110.54147,-1.1997l-0.05197,-45.45776z" data-paper-data="{&quot;index&quot;:null}" fill="#2f2f2f" stroke="none" stroke-width="0" stroke-linecap="butt"/></g></g></svg>