<svg version="1.1" xmlns="http://www.w3.org/2000/svg" xmlns:xlink="http://www.w3.org/1999/xlink" width="452.66971" height="340.82994" viewBox="0,0,452.66971,340.82994"><g transform="translate(18.9881,-122.42167)"><g data-paper-data="{&quot;isPaintingLayer&quot;:true}" fill-rule="nonzero" stroke-linejoin="miter" stroke-miterlimit="10" stroke-dasharray="" stroke-dashoffset="0" style="mix-blend-mode: normal"><path d="M258.98078,132.60093l50.22521,78.37483c0,0 -32.34762,9.67024 -53.54559,23.25218c-22.34868,14.31923 -74.62795,59.20452 -121.28555,91.7465c-50.59601,35.28889 -147.41948,54.799 -147.41948,54.799l2.32735,-75.37184z" data-paper-data="{&quot;index&quot;:null}" fill="#2f2f2f" stroke="none" stroke-width="0" stroke-linecap="butt"/><path d="M-11.4881,301.82519l266.01449,-170.45517" data-paper-data="{&quot;index&quot;:null}" fill="none" stroke="#777777" stroke-width="15" stroke-linecap="round"/><path d="M290.66738,183.22098l46.23433,72.16672c0,0 -4.05666,134.45787 -8.20175,135.94757c-10.51908,3.78043 -37.2834,-27.19263 -52.50633,-17.43612c-17.14316,10.98721 -43.21071,2.04454 -77.62369,3.43006c-10.49948,0.42273 -25.86101,1.98262 -36.80326,9.56553c-50.75748,35.17457 -175.94459,56.55241 -175.94459,56.55241l3.31522,-85.68023z" data-paper-data="{&quot;index&quot;:null}" fill="#1d1d1d" stroke="none" stroke-width="0" stroke-linecap="butt"/><path d="M253.28312,129.92167l172.89849,264.43295" data-paper-data="{&quot;index&quot;:null}" fill="none" stroke="#777777" stroke-width="15" stroke-linecap="round"/><path d="M429.0634,412.8533l-78.26363,50.39831c0,0 -9.74171,-32.32617 -23.37047,-53.49407c-14.36859,-22.31698 -59.36932,-74.49691 -92.01434,-121.08247c-35.40063,-50.51789 -56.6262,-97.74845 -56.6262,-97.74845l73.8753,-47.38879z" data-paper-data="{&quot;index&quot;:null}" fill="#2f2f2f" stroke="none" stroke-width="0" stroke-linecap="butt"/></g></g></svg>