<svg version="1.1" xmlns="http://www.w3.org/2000/svg" xmlns:xlink="http://www.w3.org/1999/xlink" width="568.4778" height="221.39743" viewBox="0,0,568.4778,221.39743"><defs><linearGradient x1="240" y1="180.00001" x2="240" y2="180.00001" gradientUnits="userSpaceOnUse" id="color-1"><stop offset="0" stop-color="#8e8e8e"/><stop offset="1" stop-color="#818181"/></linearGradient><linearGradient x1="240" y1="180.00001" x2="240" y2="180.00001" gradientUnits="userSpaceOnUse" id="color-2"><stop offset="0" stop-color="#8e8e8e"/><stop offset="1" stop-color="#818181"/></linearGradient><linearGradient x1="240" y1="180.00001" x2="240" y2="180.00001" gradientUnits="userSpaceOnUse" id="color-3"><stop offset="0" stop-color="#8e8e8e"/><stop offset="1" stop-color="#818181"/></linearGradient></defs><g transform="translate(12.59335,-155.14345)"><g data-paper-data="{&quot;isPaintingLayer&quot;:true}" fill-rule="nonzero" stroke-linejoin="miter" stroke-miterlimit="10" stroke-dasharray="" stroke-dashoffset="0" style="mix-blend-mode: normal"><path d="M396.57263,240.68002l-16.50369,13.06341c0,0 -9.24811,7.27382 -11.56132,7.02876c-4.96492,-0.526 -8.95981,-1.13532 -19.20204,-11.78178c-13.84551,-14.39193 -49.16319,-30.15811 -56.29241,-36.0768c-6.76214,-5.61394 -4.94767,-17.36261 -4.94767,-17.36261l22.47361,-26.29618z" data-paper-data="{&quot;index&quot;:null}" fill="#2f2f2f" stroke="none" stroke-width="0" stroke-linecap="butt"/><path d="M315.59582,164.64345l84.85272,70.46091" data-paper-data="{&quot;index&quot;:null}" fill="none" stroke="#777777" stroke-width="15" stroke-linecap="round"/><path d="M313.75363,170.25483l25.97361,25.79618c0,0 4.31447,9.24867 -2.44767,14.86261c-7.12921,5.91869 -42.44691,21.68487 -56.29241,36.0768c-10.24223,10.64646 -14.23712,11.25578 -19.20204,11.78178c-2.31321,0.24507 -11.56131,-7.02876 -11.56131,-7.02876l-16.50369,-13.06341z" data-paper-data="{&quot;index&quot;:null}" fill="#2f2f2f" stroke="none" stroke-width="0" stroke-linecap="butt"/><path d="M229.84419,233.10437l84.85273,-70.46091" data-paper-data="{&quot;index&quot;:null}" fill="none" stroke="#777777" stroke-width="15" stroke-linecap="round"/><g stroke="none" stroke-linecap="butt"><path d="" data-paper-data="{&quot;index&quot;:null}" fill="#2f2f2f" stroke-width="0"/><path d="" data-paper-data="{&quot;index&quot;:null}" fill="#786e5f" stroke-width="0"/><path d="" fill="#2f2f2f" stroke-width="0"/><path d="" fill="#786e5f" stroke-width="0"/><path d="" fill="#777777" stroke-width="0"/><path d="" fill="#545454" stroke-width="0"/><g><path d="" data-paper-data="{&quot;origPos&quot;:null,&quot;origRot&quot;:0}" fill="#534c42" stroke-width="0"/><path d="" data-paper-data="{&quot;origPos&quot;:null,&quot;origRot&quot;:0}" fill="url(#color-1)" stroke-width="NaN"/></g><g><path d="" data-paper-data="{&quot;origPos&quot;:null,&quot;origRot&quot;:0}" fill="#2e2e2e" stroke-width="0"/><path d="" data-paper-data="{&quot;origPos&quot;:null,&quot;origRot&quot;:0}" fill="#1d1d1d" stroke-width="NaN"/></g><path d="" fill="#2f2f2f" stroke-width="0"/><path d="" fill="#1d1d1d" stroke-width="0"/><path d="" fill="#777777" stroke-width="0"/><path d="" fill="#545454" stroke-width="0"/><g><path d="" data-paper-data="{&quot;origPos&quot;:null,&quot;origRot&quot;:0}" fill="#2e2e2e" stroke-width="0"/><path d="" data-paper-data="{&quot;origPos&quot;:null,&quot;origRot&quot;:0}" fill="#1d1d1d" stroke-width="NaN"/></g><g><path d="" data-paper-data="{&quot;origPos&quot;:null,&quot;origRot&quot;:0}" fill="#2e2e2e" stroke-width="0"/><path d="" data-paper-data="{&quot;origPos&quot;:null,&quot;origRot&quot;:0}" fill="#1d1d1d" stroke-width="NaN"/></g><path d="" data-paper-data="{&quot;index&quot;:null}" fill="#777777" stroke-width="0"/><path d="" data-paper-data="{&quot;index&quot;:null}" fill="#545454" stroke-width="0"/><g data-paper-data="{&quot;index&quot;:null}"><path d="" data-paper-data="{&quot;origPos&quot;:null,&quot;origRot&quot;:0}" fill="#534c42" stroke-width="0"/><path d="" data-paper-data="{&quot;origPos&quot;:null,&quot;origRot&quot;:0}" fill="url(#color-2)" stroke-width="NaN"/></g><g data-paper-data="{&quot;index&quot;:null}"><path d="" data-paper-data="{&quot;origPos&quot;:null,&quot;origRot&quot;:0}" fill="#2e2e2e" stroke-width="0"/><path d="" data-paper-data="{&quot;origPos&quot;:null,&quot;origRot&quot;:0}" fill="#1d1d1d" stroke-width="NaN"/></g></g><g stroke="none" stroke-linecap="butt"><path d="" data-paper-data="{&quot;origPos&quot;:null,&quot;origRot&quot;:0}" fill="#534c42" stroke-width="0"/><path d="" data-paper-data="{&quot;origPos&quot;:null,&quot;origRot&quot;:0}" fill="url(#color-3)" stroke-width="NaN"/></g><path d="" fill="#2f2f2f" stroke="none" stroke-width="0" stroke-linecap="butt"/><path d="" fill="#1d1d1d" stroke="none" stroke-width="0" stroke-linecap="butt"/><path d="" fill="#000000" stroke="none" stroke-width="0" stroke-linecap="butt"/><path d="" fill="#777777" stroke="none" stroke-width="0" stroke-linecap="butt"/><path d="" fill="#545454" stroke="none" stroke-width="0" stroke-linecap="butt"/><path d="" data-paper-data="{&quot;origRot&quot;:0}" fill="#2e2e2e" stroke="none" stroke-width="0" stroke-linecap="butt"/><path d="" data-paper-data="{&quot;origRot&quot;:0}" fill="#1d1d1d" stroke="none" stroke-width="NaN" stroke-linecap="butt"/><path d="" data-paper-data="{&quot;origRot&quot;:0}" fill="#2e2e2e" stroke="none" stroke-width="0" stroke-linecap="butt"/><path d="" data-paper-data="{&quot;origRot&quot;:0}" fill="#1d1d1d" stroke="none" stroke-width="NaN" stroke-linecap="butt"/><g stroke="none" stroke-linecap="butt"><path d="" data-paper-data="{&quot;origPos&quot;:null,&quot;origRot&quot;:0}" fill="#2e2e2e" stroke-width="0"/><path d="" data-paper-data="{&quot;origPos&quot;:null,&quot;origRot&quot;:0}" fill="#1d1d1d" stroke-width="NaN"/></g><g stroke="none" stroke-linecap="butt"><path d="" data-paper-data="{&quot;origPos&quot;:null,&quot;origRot&quot;:0}" fill="#2e2e2e" stroke-width="0"/><path d="" data-paper-data="{&quot;origPos&quot;:null,&quot;origRot&quot;:0}" fill="#1d1d1d" stroke-width="NaN"/></g><g stroke="none" stroke-linecap="butt"><path d="" data-paper-data="{&quot;origPos&quot;:null,&quot;origRot&quot;:0}" fill="#2e2e2e" stroke-width="0"/><path d="" data-paper-data="{&quot;origPos&quot;:null,&quot;origRot&quot;:0}" fill="#1d1d1d" stroke-width="NaN"/></g><g stroke="none" stroke-linecap="butt"><path d="" data-paper-data="{&quot;origPos&quot;:null,&quot;origRot&quot;:0}" fill="#2e2e2e" stroke-width="0"/><path d="" data-paper-data="{&quot;origPos&quot;:null,&quot;origRot&quot;:0}" fill="#1d1d1d" stroke-width="NaN"/></g><path d="M128.96678,228.66746c0,0 -1.29393,28.73017 -0.75692,38.48c-0.29978,10.60195 -0.75913,70.1305 -0.75913,70.1305c0,0 -27.14725,-27.33967 -44.38636,-20.82057c-15.89721,6.01166 -37.17049,8.76397 -44.26407,12.24334c-6.72834,3.30023 -12.45307,13.5654 -12.45307,13.5654c0,0 -26.82185,4.19235 -37.00807,-3.90204c-5.3802,-4.27533 3.97489,-20.63066 2.34296,-23.95776c-5.0801,-10.35707 5.18117,-32.2507 5.18117,-32.2507z" data-paper-data="{&quot;index&quot;:null}" fill="#2f2f2f" stroke="none" stroke-width="0" stroke-linecap="butt"/><path d="M-4.23111,276.8291l129.74566,-47.50404" fill="none" stroke="#777777" stroke-width="15" stroke-linecap="round"/><path d="M127.50979,284.74447l1.48395,79.6105c0,0 -21.16434,0.16871 -38.42477,6.69827c-15.91686,6.0213 -28.21374,-2.21483 -35.3165,1.26905c-6.73705,3.30449 -12.473,3.57518 -12.473,3.57518c0,0 -46.35544,2.82708 -54.56093,-3.37073c-3.99938,-3.02083 8.07698,-31.73978 8.07698,-31.73978z" data-paper-data="{&quot;index&quot;:null}" fill="#1d1d1d" stroke="none" stroke-width="0" stroke-linecap="butt"/><path d="M547.15001,238.86744l1.55223,34.58697c0,0 -17.45797,10.20689 -42.63381,10.21897c-26.54249,0.01274 -133.27169,-10.36504 -190.112,-8.10851c-42.04773,1.66928 -51.97554,-0.40893 -63.89151,-3.16991c-5.55178,-1.28637 -12.6705,-12.78681 -12.6705,-12.78681l-12.55222,-20.58697z" data-paper-data="{&quot;index&quot;:null}" fill="#2f2f2f" stroke="none" stroke-width="0" stroke-linecap="butt"/><path d="M228.47515,232.25467l315.94089,-0.16396" data-paper-data="{&quot;index&quot;:null}" fill="none" stroke="#777777" stroke-width="15" stroke-linecap="round"/><path d="M125.88445,366.46025l1.5,-81.5c0,0 13.54103,42.77578 36.71952,49.53132c36.7106,10.69957 371.28048,7.96868 371.28048,7.96868c0,0 16.31505,5.95886 17.42355,8.45299c2.4227,5.45107 3.07645,21.54701 3.07645,21.54701z" fill="#1d1d1d" stroke="none" stroke-width="0" stroke-linecap="butt"/></g></g></svg>