<svg version="1.1" xmlns="http://www.w3.org/2000/svg" xmlns:xlink="http://www.w3.org/1999/xlink" width="75" height="75" viewBox="0,0,75,75"><defs><radialGradient cx="240.6068" cy="178.17961" r="37.5" gradientUnits="userSpaceOnUse" id="color-1"><stop offset="0" stop-color="#ffff9d"/><stop offset="1" stop-color="#ffff9d" stop-opacity="0"/></radialGradient><linearGradient x1="249.1638" y1="167.32778" x2="228.94459" y2="192.67225" gradientUnits="userSpaceOnUse" id="color-2"><stop offset="0" stop-color="#be9311"/><stop offset="1" stop-color="#8d6500"/></linearGradient><linearGradient x1="251.50049" y1="167.32777" x2="233.51608" y2="192.67224" gradientUnits="userSpaceOnUse" id="color-3"><stop offset="0" stop-color="#e7b215"/><stop offset="1" stop-color="#b07e00"/></linearGradient><radialGradient cx="236.76248" cy="171.29104" r="14.47973" gradientUnits="userSpaceOnUse" id="color-4"><stop offset="0" stop-color="#fffd00"/><stop offset="1" stop-color="#ffcf19"/></radialGradient><linearGradient x1="242.51329" y1="170.46981" x2="242.51329" y2="188.86485" gradientUnits="userSpaceOnUse" id="color-5"><stop offset="0" stop-color="#e2ae13"/><stop offset="1" stop-color="#b28001"/></linearGradient></defs><g transform="translate(-202.5,-142.5)"><g data-paper-data="{&quot;isPaintingLayer&quot;:true}" fill-rule="nonzero" stroke="none" stroke-width="0" stroke-linecap="butt" stroke-linejoin="miter" stroke-miterlimit="10" stroke-dasharray="" stroke-dashoffset="0" style="mix-blend-mode: normal"><path d="M202.5,180c0,-20.71068 16.78932,-37.5 37.5,-37.5c20.71067,0 37.5,16.78932 37.5,37.5c0,20.71068 -16.78933,37.5 -37.5,37.5c-20.71068,0 -37.5,-16.78932 -37.5,-37.5z" fill="url(#color-1)"/><path d="M248.93544,192.96512c-5.58337,6.99868 -3.07878,-1.62419 -6.28289,5.15187c-10.81312,0.03872 -13.70795,-5.44474 -13.70795,-5.44474c-5.45726,-7.16043 -5.35502,-18.63866 0.22837,-25.63734c2.86151,-3.58686 9.13548,-5.12738 13.72305,-5.03728c4.56325,0.08962 3.50118,1.70011 6.26778,5.33015c5.45725,7.16043 5.35501,18.63866 -0.22837,25.63734z" data-paper-data="{&quot;origPos&quot;:null,&quot;origRot&quot;:0,&quot;index&quot;:null}" fill="url(#color-2)"/><path d="M233.51609,192.67224c-4.85407,-7.16043 -4.76313,-18.63866 0.20313,-25.63734c4.96625,-6.99868 12.9272,-6.86756 17.78127,0.29287c4.85407,7.16043 4.76313,18.63866 -0.20313,25.63734c-4.96625,6.99868 -12.9272,6.86756 -17.78127,-0.29287z" data-paper-data="{&quot;origPos&quot;:null,&quot;origRot&quot;:0,&quot;index&quot;:null}" fill="url(#color-3)"/><path d="M235.32638,190.12109c-3.87686,-5.71891 -3.80423,-14.88636 0.16223,-20.47608c3.96646,-5.58972 10.32471,-5.485 14.20158,0.23391c3.87686,5.71891 3.80423,14.88636 -0.16223,20.47608c-3.96646,5.58972 -10.32471,5.485 -14.20158,-0.23391z" data-paper-data="{&quot;origPos&quot;:null,&quot;origRot&quot;:0,&quot;index&quot;:null}" fill="url(#color-4)"/><path d="M240.25401,188.86485v-18.39504h4.51854v18.39504z" data-paper-data="{&quot;origPos&quot;:null,&quot;index&quot;:null}" fill="url(#color-5)"/></g></g></svg>