<svg version="1.1" xmlns="http://www.w3.org/2000/svg" xmlns:xlink="http://www.w3.org/1999/xlink" width="344.98879" height="365.86428" viewBox="0,0,344.98879,365.86428"><g transform="translate(-42.79212,-17.73763)"><g data-paper-data="{&quot;isPaintingLayer&quot;:true}" fill-rule="nonzero" stroke-linejoin="miter" stroke-miterlimit="10" stroke-dasharray="" stroke-dashoffset="0" style="mix-blend-mode: normal"><path d="M156.04154,76.16752l-15.99154,42.03007c0,0 -7.37827,-9.16994 -14.34267,-13.02313c-7.34246,-4.06236 -27.86561,-10.17596 -43.97268,-17.86908c-17.46668,-8.34252 -30.29154,-18.13127 -30.29154,-18.13127l15.99154,-42.03006z" data-paper-data="{&quot;index&quot;:null}" fill="#1d1d1d" stroke="none" stroke-width="0" stroke-linecap="butt"/><path d="M267.4813,62.51618l0.2012,55.72744c0,0 -13.30264,-5.50798 -23.60681,-5.45773c-10.86353,0.05297 -38.77038,5.92998 -62.03011,7.37798c-25.22313,1.57022 -45.46119,-1.28101 -45.46119,-1.28101l-0.2012,-55.72744z" data-paper-data="{&quot;index&quot;:null}" fill="#1d1d1d" stroke="none" stroke-width="0" stroke-linecap="butt"/><path d="M376.78961,71.43692l-100.56997,46.30181" data-paper-data="{&quot;index&quot;:null}" fill="none" stroke="#777777" stroke-width="15" stroke-linecap="round"/><path d="M349.73809,35.65756l24.48515,38.56462c0,0 -19.63655,8.98166 -46.38035,16.63632c-17.95561,5.13929 -33.48943,18.51935 -48.21522,21.95511c-5.50008,1.28326 -14.5541,0.93454 -17.61124,1.94815c-10.66342,3.53549 -23.46202,4.44184 -23.46202,4.44184l-24.48515,-38.56462z" data-paper-data="{&quot;index&quot;:null}" fill="#1d1d1d" stroke="none" stroke-width="0" stroke-linecap="butt"/><path d="M137.02042,117.05907l139.6142,-0.27938" data-paper-data="{&quot;index&quot;:null}" fill="none" stroke="#777777" stroke-width="15" stroke-linecap="round"/><path d="M51.41159,76.43692l87.52462,40.2958" data-paper-data="{&quot;index&quot;:null}" fill="none" stroke="#777777" stroke-width="15" stroke-linecap="round"/><path d="M374.65,236.36743l0.05223,93.08697c0,0 -32.45797,-9.29311 -57.63381,-9.28103c-26.54249,0.01274 -94.77169,9.63496 -151.612,11.89149c-61.63825,2.44701 -111.06201,-2.45672 -111.06201,-2.45672l-0.05222,-93.08697z" data-paper-data="{&quot;index&quot;:null}" fill="#2f2f2f" stroke="none" stroke-width="0" stroke-linecap="butt"/><path d="M371.91603,229.5907l-315.94089,0.16396" data-paper-data="{&quot;index&quot;:null}" fill="none" stroke="#777777" stroke-width="15" stroke-linecap="round"/><path d="M374.85943,294.81937l0.03755,85.70675c0,0 -32.49547,-8.5507 -57.70153,-8.53521c-26.57435,0.01633 -94.88698,8.8875 -151.79584,10.97498c-61.71263,2.26368 -111.19493,-2.2427 -111.19493,-2.2427l-0.03755,-85.70675z" data-paper-data="{&quot;index&quot;:null}" fill="#1d1d1d" stroke="none" stroke-width="0" stroke-linecap="butt"/><path d="M376.15174,30.95584l0.05199,38.63501c0,0 -32.30584,-3.85703 -57.36368,-3.85202c-26.41809,0.00529 -94.3275,3.99891 -150.90141,4.93547c-61.34935,1.01561 -110.54147,-1.01964 -110.54147,-1.01964l-0.05197,-38.635z" data-paper-data="{&quot;index&quot;:null}" fill="#2f2f2f" stroke="none" stroke-width="0" stroke-linecap="butt"/><path d="M370.41452,25.23763l-310.63351,0.06691" data-paper-data="{&quot;index&quot;:null}" fill="none" stroke="#777777" stroke-width="15" stroke-linecap="round"/><path d="M61.46709,27.55054l-11.17497,46.87133" data-paper-data="{&quot;index&quot;:null}" fill="none" stroke="#777777" stroke-width="15" stroke-linecap="round"/><path d="M380.28092,69.42187l-11.17498,-37.86232" data-paper-data="{&quot;index&quot;:null}" fill="none" stroke="#777777" stroke-width="15" stroke-linecap="round"/></g></g></svg>