<svg version="1.1" xmlns="http://www.w3.org/2000/svg" xmlns:xlink="http://www.w3.org/1999/xlink" width="527.23764" height="323.6601" viewBox="0,0,527.23764,323.6601"><g transform="translate(-33.71596,-97.15883)"><g data-paper-data="{&quot;isPaintingLayer&quot;:true}" fill-rule="nonzero" stroke-linejoin="miter" stroke-miterlimit="10" stroke-dasharray="" stroke-dashoffset="0" style="mix-blend-mode: normal"><path d="M286.23862,281.63012c0,0 10.26127,21.89363 5.18117,32.2507c-1.63193,3.3271 7.72316,19.68243 2.34296,23.95776c-10.18622,8.09439 -37.00807,3.90204 -37.00807,3.90204c0,0 -5.72473,-10.26517 -12.45307,-13.5654c-7.09358,-3.47937 -28.36686,-6.23168 -44.26407,-12.24334c-17.23911,-6.5191 -44.38636,20.82057 -44.38636,20.82057c0,0 -0.45935,-59.52855 -0.75913,-70.1305c0.53701,-9.74983 -0.75692,-38.48 -0.75692,-38.48z" data-paper-data="{&quot;index&quot;:null}" fill="#2f2f2f" stroke="none" stroke-width="0" stroke-linecap="butt"/><path d="M157.58736,228.79954l129.74566,47.50404" data-paper-data="{&quot;index&quot;:null}" fill="none" stroke="#777777" stroke-width="15" stroke-linecap="round"/><path d="M286.80638,340.26145c0,0 12.07636,28.71895 8.07698,31.73978c-8.20549,6.19781 -54.56093,3.37073 -54.56093,3.37073c0,0 -5.73595,-0.27069 -12.473,-3.57518c-7.10276,-3.48388 -19.39964,4.75225 -35.3165,-1.26905c-17.26043,-6.52956 -38.42477,-6.69827 -38.42477,-6.69827l1.48395,-79.6105z" data-paper-data="{&quot;index&quot;:null}" fill="#1d1d1d" stroke="none" stroke-width="0" stroke-linecap="butt"/><path d="M33.71596,371.93474c0,0 0.18548,-16.09594 0.87285,-21.54701c0.3145,-2.49413 4.94343,-8.45299 4.94343,-8.45299c0,0 94.92448,2.73089 105.34004,-7.96868c6.57622,-6.75554 10.4181,-49.53132 10.4181,-49.53132l0.42558,81.5z" data-paper-data="{&quot;index&quot;:null}" fill="#1d1d1d" stroke="none" stroke-width="0" stroke-linecap="butt"/><path d="M382.40198,129.91482l-12.53072,22.90572c0,0 -5.7815,-4.99747 -11.2387,-7.0974c-5.75345,-2.21392 -21.83507,-5.54574 -34.45631,-9.73837c-13.68663,-4.54654 -23.73598,-9.88125 -23.73598,-9.88125l12.53073,-22.90571z" data-paper-data="{&quot;index&quot;:null}" fill="#1d1d1d" stroke="none" stroke-width="0" stroke-linecap="butt"/><path d="M469.72445,122.47506l0.15766,30.37057c0,0 -10.42375,-3.00176 -18.49794,-2.97437c-8.51249,0.02887 -30.37987,3.23175 -48.60584,4.02088c-19.76445,0.85575 -35.62268,-0.69813 -35.62268,-0.69813l-0.15766,-30.37057z" data-paper-data="{&quot;index&quot;:null}" fill="#1d1d1d" stroke="none" stroke-width="0" stroke-linecap="butt"/><path d="M555.37675,127.33672l-78.80506,25.23375" data-paper-data="{&quot;index&quot;:null}" fill="none" stroke="#777777" stroke-width="10" stroke-linecap="round"/><path d="M534.17959,107.83753l19.18619,21.0171c0,0 -15.3869,4.89486 -36.34293,9.06653c-14.06973,2.80083 -26.2418,10.09276 -37.7807,11.96519c-4.30978,0.69935 -11.40436,0.50931 -13.7999,1.06171c-8.3557,1.92678 -18.38448,2.42073 -18.38448,2.42073l-19.18619,-21.0171z" data-paper-data="{&quot;index&quot;:null}" fill="#1d1d1d" stroke="none" stroke-width="0" stroke-linecap="butt"/><path d="M367.49732,152.20009l109.39952,-0.15225" data-paper-data="{&quot;index&quot;:null}" fill="none" stroke="#777777" stroke-width="10" stroke-linecap="round"/><path d="M300.41557,130.06165l68.58294,21.96057" data-paper-data="{&quot;index&quot;:null}" fill="none" stroke="#777777" stroke-width="10" stroke-linecap="round"/><path d="M554.87692,105.27516l0.04073,21.05547c0,0 -25.31436,-2.10202 -44.94928,-2.09929c-20.70081,0.00289 -73.91357,2.17935 -118.24401,2.68976c-48.0724,0.55349 -86.61859,-0.55569 -86.61859,-0.55569l-0.04072,-21.05546z" data-paper-data="{&quot;index&quot;:null}" fill="#2f2f2f" stroke="none" stroke-width="0" stroke-linecap="butt"/><path d="M306.97371,102.1953l243.40761,-0.03647" data-paper-data="{&quot;index&quot;:null}" fill="none" stroke="#777777" stroke-width="10" stroke-linecap="round"/><path d="M308.29491,103.41935l-8.75653,25.54413" data-paper-data="{&quot;index&quot;:null}" fill="none" stroke="#777777" stroke-width="10" stroke-linecap="round"/><path d="M547.19705,104.10269l8.75655,20.63437" data-paper-data="{&quot;index&quot;:null}" fill="none" stroke="#777777" stroke-width="10" stroke-linecap="round"/><path d="M286.85025,275.78419l13.21987,137.53474" data-paper-data="{&quot;index&quot;:null}" fill="none" stroke="#777777" stroke-width="15" stroke-linecap="round"/></g></g></svg>