<svg version="1.1" xmlns="http://www.w3.org/2000/svg" xmlns:xlink="http://www.w3.org/1999/xlink" width="330.23244" height="298.20197" viewBox="0,0,330.23244,298.20197"><g transform="translate(-88.21866,-48.37716)"><g data-paper-data="{&quot;isPaintingLayer&quot;:true}" stroke-miterlimit="10" stroke-dasharray="" stroke-dashoffset="0" style="mix-blend-mode: normal"><path d="M412.06893,52.67619c7.75366,5.07482 6.26817,15.32198 6.26817,15.32198l-0.98243,222.88237c0,0 1.96585,10.99751 -5.65621,16.46397c-7.62204,5.46645 -23.06651,4.13566 -23.06651,4.13566l-269.49437,-1.49344c0,0 -16.77223,0.74537 -24.46872,-4.42404c-7.69649,-5.16941 -6.36167,-16.28343 -6.36167,-16.28343l-0.02173,-222.34612c0,0 -0.34781,-9.24742 6.50577,-13.78769c6.85358,-4.54026 20.96352,-4.40976 20.96352,-4.40976l272.68012,-0.30878c0,0 15.88039,-0.82557 23.63402,4.24927z" data-paper-data="{&quot;origRot&quot;:0,&quot;index&quot;:null}" fill="#0085ff" fill-rule="evenodd" stroke="none" stroke-width="1" stroke-linecap="round" stroke-linejoin="round" opacity="0.42445"/><text transform="translate(110.25078,79.53187) scale(0.58053,0.58053)" font-size="40" xml:space="preserve" fill="#ffffff" fill-rule="nonzero" stroke="#ffffff" stroke-width="3" stroke-linecap="butt" stroke-linejoin="miter" stroke-miterlimit="10" stroke-dasharray="" stroke-dashoffset="0" font-family="Sans Serif" font-weight="normal" text-anchor="start" style="mix-blend-mode: normal"><tspan x="0" dy="0">[1] Hi!</tspan><tspan x="0" dy="46.150000000000006px">[2] Bye!</tspan><tspan x="0" dy="46.150000000000006px">[3] Yes</tspan><tspan x="0" dy="46.150000000000006px">[4] Help please!</tspan><tspan x="0" dy="46.150000000000006px">[5] No</tspan><tspan x="0" dy="46.150000000000006px">[6] This Way!</tspan><tspan x="0" dy="46.150000000000006px">[7] Lol!</tspan><tspan x="0" dy="46.150000000000006px">[8] I Am Lagging :(</tspan><tspan x="0" dy="46.150000000000006px">[9] Got to go!</tspan></text><path d="M366.59213,314.91135c5.53239,0.61667 4.47246,1.86187 4.47246,1.86187l-0.70098,27.0839c0,0 1.40267,1.33638 -4.03582,2.00065c-5.43847,0.66426 -16.45841,0.50255 -16.45841,0.50255l-192.28951,-0.18148c0,0 -11.96731,0.09057 -17.45891,-0.53759c-5.4916,-0.62817 -4.53918,-1.97871 -4.53918,-1.97871l-0.0155,-27.01874c0,0 -0.24817,-1.12371 4.64199,-1.67543c4.89016,-0.55172 14.95788,-0.53586 14.95788,-0.53586l194.5626,-0.03752c0,0 11.33097,-0.10032 16.86334,0.51636z" data-paper-data="{&quot;origRot&quot;:0,&quot;index&quot;:null}" fill="#0085ff" fill-rule="evenodd" stroke="none" stroke-width="1" stroke-linecap="round" stroke-linejoin="round" opacity="0.42445"/><text transform="translate(167.6069,338.74198) scale(0.58053,0.58053)" font-size="40" xml:space="preserve" fill="#ffffff" fill-rule="nonzero" stroke="#ffffff" stroke-width="3" stroke-linecap="butt" stroke-linejoin="miter" stroke-miterlimit="10" stroke-dasharray="" stroke-dashoffset="0" font-family="Sans Serif" font-weight="normal" text-anchor="start" style="mix-blend-mode: normal"><tspan x="0" dy="0">Space To Close</tspan></text></g></g></svg>