<svg version="1.1" xmlns="http://www.w3.org/2000/svg" xmlns:xlink="http://www.w3.org/1999/xlink" width="451.97877" height="328.23812" viewBox="0,0,451.97877,328.23812"><g transform="translate(-30.04237,-100.40884)"><g data-paper-data="{&quot;isPaintingLayer&quot;:true}" fill-rule="nonzero" stroke-linejoin="miter" stroke-miterlimit="10" stroke-dasharray="" stroke-dashoffset="0" style="mix-blend-mode: normal"><path d="M110.57363,186.39598l-22.51651,6.45295c0,0 -13.92189,-7.63664 -17.03379,-13.0603c-3.28084,-5.71809 -15.42675,-19.7532 -23.31558,-31.8441c-8.55474,-13.11153 -12.75629,-24.09993 -12.75629,-24.09993c0,0 -2.55696,-13.51214 2.5213,-14.42165c6.55211,-1.17347 33.50872,7.96871 33.50872,7.96871z" data-paper-data="{&quot;index&quot;:null}" fill="#1d1d1d" stroke="none" stroke-width="0" stroke-linecap="butt"/><path d="M175.55845,245.1968l-22.10767,20.8242c0,0 -4.91198,-9.67148 -10.43759,-15.55884c-5.82556,-6.20695 -23.07915,-20.01833 -36.08418,-32.812c-14.10281,-13.8736 -23.77949,-26.53297 -23.77949,-26.53297l22.10767,-20.8242z" data-paper-data="{&quot;index&quot;:null}" fill="#1d1d1d" stroke="none" stroke-width="0" stroke-linecap="butt"/><path d="M230.2156,282.36289l-2.29083,28.36513c0,0 37.80888,25.37639 29.80035,33.88172c-12.66652,13.45229 -74.63017,11.7287 -85.54275,6.11107c-1.95467,-1.00623 -5.33866,-15.10762 -5.12848,-29.70785c0.20923,-14.53442 4.01177,-29.56768 2.45771,-30.68649c-11.6425,-8.38178 1.72386,-12.31311 -7.51383,-19.47672c-3.45028,-2.67561 -8.14887,-7.99467 -10.18639,-9.37027c-7.10691,-4.79813 -14.30658,-11.79707 -14.30658,-11.79707l2.29083,-28.36513z" data-paper-data="{&quot;index&quot;:null}" fill="#1d1d1d" stroke="none" stroke-width="0" stroke-linecap="butt"/><path d="M84.10954,190.68938l80.70798,89.41868l-0.29638,90.39587" data-paper-data="{&quot;index&quot;:null}" fill="none" stroke="#777777" stroke-width="10" stroke-linecap="round"/><path d="M85.26326,191.66618l-50.22089,-65.14071" data-paper-data="{&quot;index&quot;:null}" fill="none" stroke="#777777" stroke-width="10" stroke-linecap="round"/><path d="M246.20286,295.75516l-15.37368,14.38696c0,0 -15.72362,-19.95001 -29.11415,-34.31051c-14.11744,-15.14006 -51.99382,-52.57954 -82.59491,-84.65791c-20.02952,-20.99645 -46.00185,-49.71374 -63.44587,-69.1821c-11.45657,-12.78608 -19.23458,-21.58276 -19.23458,-21.58276l33.3917,5.13258z" data-paper-data="{&quot;index&quot;:null}" fill="#2f2f2f" stroke="none" stroke-width="0" stroke-linecap="butt"/><path d="M245.41694,290.34181l-165.99983,-178.02057" data-paper-data="{&quot;index&quot;:null}" fill="none" stroke="#777777" stroke-width="10" stroke-linecap="round"/><path d="M479.75511,281.41248l0.05223,93.08697c0,0 -32.45797,-9.29311 -57.63381,-9.28103c-26.54249,0.01274 -94.77169,9.63496 -151.612,11.89149c-31.70592,1.25871 8.26794,-8.00708 8.92101,-25.67995c0.0951,-2.57359 -35.01141,-14.53116 -36.4068,-16.41154c-11.37833,-15.33297 -14.57622,-20.86523 -14.57622,-20.86523l-20.05222,-32.58697z" data-paper-data="{&quot;index&quot;:null}" fill="#2f2f2f" stroke="none" stroke-width="0" stroke-linecap="butt"/><path d="M229.58025,274.29971l244.94089,1.33604" data-paper-data="{&quot;index&quot;:null}" fill="none" stroke="#777777" stroke-width="15" stroke-linecap="round"/><path d="M479.96454,339.86442l0.03755,85.70675c0,0 -32.49547,-8.5507 -57.70153,-8.53521c-26.57435,0.01633 -94.88698,8.8875 -151.79584,10.97498c-61.71263,2.26368 -111.19493,-2.2427 -111.19493,-2.2427l-0.03755,-85.70675z" data-paper-data="{&quot;index&quot;:null}" fill="#1d1d1d" stroke="none" stroke-width="0" stroke-linecap="butt"/><path d="M164.52114,280.00394l-1.5,103" fill="none" stroke="#777777" stroke-width="10" stroke-linecap="round"/></g></g></svg>