<svg version="1.1" xmlns="http://www.w3.org/2000/svg" xmlns:xlink="http://www.w3.org/1999/xlink" width="75" height="75" viewBox="0,0,75,75"><defs><radialGradient cx="240.6068" cy="178.17961" r="37.5" gradientUnits="userSpaceOnUse" id="color-1"><stop offset="0" stop-color="#ffff9d"/><stop offset="1" stop-color="#ffff9d" stop-opacity="0"/></radialGradient><linearGradient x1="242.4172" y1="167.37843" x2="233.17966" y2="192.7229" gradientUnits="userSpaceOnUse" id="color-2"><stop offset="0" stop-color="#be9311"/><stop offset="1" stop-color="#8d6500"/></linearGradient><linearGradient x1="246.94589" y1="167.37842" x2="237.70835" y2="192.72289" gradientUnits="userSpaceOnUse" id="color-3"><stop offset="0" stop-color="#e7b215"/><stop offset="1" stop-color="#b07e00"/></linearGradient><radialGradient cx="239.73178" cy="170.34169" r="14.47973" gradientUnits="userSpaceOnUse" id="color-4"><stop offset="0" stop-color="#fffd00"/><stop offset="1" stop-color="#ffcf19"/></radialGradient><linearGradient x1="242.32969" y1="170.3538" x2="242.32969" y2="188.74884" gradientUnits="userSpaceOnUse" id="color-5"><stop offset="0" stop-color="#e2ae13"/><stop offset="1" stop-color="#b28001"/></linearGradient></defs><g transform="translate(-202.5,-142.5)"><g data-paper-data="{&quot;isPaintingLayer&quot;:true}" fill-rule="nonzero" stroke="none" stroke-width="0" stroke-linecap="butt" stroke-linejoin="miter" stroke-miterlimit="10" stroke-dasharray="" stroke-dashoffset="0" style="mix-blend-mode: normal"><path d="M202.5,180c0,-20.71068 16.78932,-37.5 37.5,-37.5c20.71067,0 37.5,16.78932 37.5,37.5c0,20.71068 -16.78933,37.5 -37.5,37.5c-20.71068,0 -37.5,-16.78932 -37.5,-37.5z" fill="url(#color-1)"/><path d="M241.7181,198.1539c-2.70043,0.40754 -6.91453,-0.16358 -8.34393,-4.55599c-2.67091,-8.20747 -3.01358,-20.04949 -0.18745,-27.26234c1.64104,-4.18826 6.20922,-5.10148 8.8816,-4.37001c2.28338,0.625 1.98169,35.83642 -0.35022,36.18834z" data-paper-data="{&quot;origPos&quot;:null,&quot;origRot&quot;:0,&quot;index&quot;:null}" fill="url(#color-2)"/><path d="M237.70835,192.72289c-2.49325,-7.16043 -2.44654,-18.63866 0.10434,-25.63734c2.55087,-6.99868 6.63996,-6.86756 9.13321,0.29287c2.49325,7.16043 2.44654,18.63866 -0.10434,25.63734c-2.55087,6.99868 -6.63996,6.86756 -9.13321,-0.29287z" data-paper-data="{&quot;origPos&quot;:null,&quot;origRot&quot;:0,&quot;index&quot;:null}" fill="url(#color-3)"/><path d="M238.63818,190.17174c-1.99132,-5.71891 -1.95401,-14.88636 0.08333,-20.47608c2.03734,-5.58972 5.30321,-5.485 7.29453,0.23391c1.99132,5.71891 1.95401,14.88636 -0.08333,20.47608c-2.03734,5.58972 -5.30321,5.485 -7.29453,-0.23391z" data-paper-data="{&quot;origPos&quot;:null,&quot;origRot&quot;:0,&quot;index&quot;:null}" fill="url(#color-4)"/><path d="M241.16923,188.74884v-18.39504h2.32091v18.39504z" data-paper-data="{&quot;origPos&quot;:null,&quot;index&quot;:null}" fill="url(#color-5)"/></g></g></svg>