<svg version="1.1" xmlns="http://www.w3.org/2000/svg" xmlns:xlink="http://www.w3.org/1999/xlink" width="717.25405" height="451.34862" viewBox="0,0,717.25405,451.34862"><g transform="translate(303.62187,65.96666)"><g data-paper-data="{&quot;isPaintingLayer&quot;:true}" fill-rule="nonzero" stroke-linejoin="miter" stroke-miterlimit="10" stroke-dasharray="" stroke-dashoffset="0" style="mix-blend-mode: normal"><path d="M19.42894,-51.01243l9.0983,66.33097c0,0 -44.80921,9.72348 -101.53378,15.74913c-52.30912,5.55661 -115.77852,7.30068 -140.1028,10.63713c-23.07187,3.16466 -51.90266,13.87713 -51.90266,13.87713l-9.0983,-66.33097z" data-paper-data="{&quot;index&quot;:null}" fill="#2f2f2f" stroke="none" stroke-width="0" stroke-linecap="butt"/><path d="M16.88827,-57.49294l-313.01013,42.9341" fill="none" stroke="#777777" stroke-width="15" stroke-linecap="round"/><path d="M24.71905,-13.95654l9.0983,66.33096c0,0 -44.8678,9.73152 -101.66548,15.7672c-52.3765,5.56584 -115.92682,7.32102 -140.28259,10.66178c-23.10172,3.16875 -51.97101,13.88651 -51.97101,13.88651l-9.0983,-66.33096z" data-paper-data="{&quot;index&quot;:null}" fill="#1d1d1d" stroke="none" stroke-width="0" stroke-linecap="butt"/><path d="M59.43669,256.43634l-66.17099,10.19689c0,0 -10.46512,-44.64183 -17.43049,-101.25869c-6.42318,-52.20979 -9.21939,-115.64154 -12.9587,-139.90717c-3.54677,-23.01622 -14.73582,-51.66543 -14.73582,-51.66543l66.17099,-10.19688z" data-paper-data="{&quot;index&quot;:null}" fill="#2f2f2f" stroke="none" stroke-width="0" stroke-linecap="butt"/><path d="M65.87418,253.78856l-48.11821,-312.25521" fill="none" stroke="#777777" stroke-width="15" stroke-linecap="round"/><path d="M22.4736,262.34014l-66.17098,10.19688c0,0 -10.47413,-44.70028 -17.45074,-101.39007c-6.43353,-52.27701 -9.2422,-115.78948 -12.98635,-140.08652c-3.55137,-23.046 -14.74632,-51.73361 -14.74632,-51.73361l66.17099,-10.19688z" data-paper-data="{&quot;index&quot;:null}" fill="#1d1d1d" stroke="none" stroke-width="0" stroke-linecap="butt"/><path d="M152.13509,302.40872l-47.15575,47.52801c0,0 -34.94828,-29.68213 -74.19912,-71.07485c-36.19555,-38.1707 -76.14377,-87.52194 -93.57281,-104.81447c-16.53165,-16.40216 -42.55721,-32.79245 -42.55721,-32.79245l47.15575,-47.528z" data-paper-data="{&quot;index&quot;:null}" fill="#2f2f2f" stroke="none" stroke-width="0" stroke-linecap="butt"/><path d="M155.7386,296.45331l-224.28057,-222.52394" fill="none" stroke="#777777" stroke-width="15" stroke-linecap="round"/><path d="M125.91743,329.12498l-47.15574,47.528c0,0 -34.99027,-29.72379 -74.29349,-71.16847c-36.24382,-38.2186 -76.25003,-87.62736 -93.70163,-104.94228c-16.55304,-16.42338 -42.60618,-32.84105 -42.60618,-32.84105l47.15575,-47.528z" data-paper-data="{&quot;index&quot;:null}" fill="#1d1d1d" stroke="none" stroke-width="0" stroke-linecap="butt"/><path d="M407.76864,278.48079v66.95204c0,0 -45.71489,3.54403 -102.7321,1.80532c-52.57898,-1.60337 -115.69661,-8.50051 -140.24866,-8.50051c-23.2879,0 -53.30699,6.6952 -53.30699,6.6952v-66.95204z" data-paper-data="{&quot;index&quot;:null}" fill="#2f2f2f" stroke="none" stroke-width="0" stroke-linecap="butt"/><path d="M90.19124,271.71513h315.94094" fill="none" stroke="#777777" stroke-width="15" stroke-linecap="round"/><path d="M407.97404,315.91182v66.95204c0,0 -45.77404,3.54403 -102.86504,1.80532c-52.64699,-1.60337 -115.84629,-8.50051 -140.43012,-8.50051c-23.31803,0 -53.37598,6.6952 -53.37598,6.6952v-66.95204z" data-paper-data="{&quot;index&quot;:null}" fill="#1d1d1d" stroke="none" stroke-width="0" stroke-linecap="butt"/><path d="M255.0881,278.71357v66.95204c0,0 -45.71489,3.54403 -102.7321,1.80532c-52.57898,-1.60337 -115.69661,-8.50051 -140.24866,-8.50051c-23.2879,0 -53.30699,6.6952 -53.30699,6.6952v-66.95204z" data-paper-data="{&quot;index&quot;:null}" fill="#2f2f2f" stroke="none" stroke-width="0" stroke-linecap="butt"/><path d="M253.45164,271.94791h-315.94094" fill="none" stroke="#777777" stroke-width="15" stroke-linecap="round"/><path d="M255.2935,316.14459v66.95204c0,0 -45.77404,3.54403 -102.86504,1.80532c-52.64699,-1.60337 -115.84629,-8.50051 -140.43012,-8.50051c-23.31803,0 -53.37598,6.6952 -53.37598,6.6952v-66.95204z" data-paper-data="{&quot;index&quot;:null}" fill="#1d1d1d" stroke="none" stroke-width="0" stroke-linecap="butt"/></g></g></svg>