<svg version="1.1" xmlns="http://www.w3.org/2000/svg" xmlns:xlink="http://www.w3.org/1999/xlink" width="75" height="75" viewBox="0,0,75,75"><defs><radialGradient cx="240.6068" cy="178.17961" r="37.5" gradientUnits="userSpaceOnUse" id="color-1"><stop offset="0" stop-color="#ffff9d"/><stop offset="1" stop-color="#ffff9d" stop-opacity="0"/></radialGradient><linearGradient x1="237.58279" y1="167.37842" x2="246.82033" y2="192.72289" gradientUnits="userSpaceOnUse" id="color-2"><stop offset="0" stop-color="#be9311"/><stop offset="1" stop-color="#8d6500"/></linearGradient><linearGradient x1="233.0541" y1="167.37841" x2="242.29164" y2="192.72288" gradientUnits="userSpaceOnUse" id="color-3"><stop offset="0" stop-color="#e7b215"/><stop offset="1" stop-color="#b07e00"/></linearGradient><radialGradient cx="235.06513" cy="171.00835" r="14.47973" gradientUnits="userSpaceOnUse" id="color-4"><stop offset="0" stop-color="#fffd00"/><stop offset="1" stop-color="#ffcf19"/></radialGradient><linearGradient x1="237.6703" y1="170.35379" x2="237.6703" y2="188.74883" gradientUnits="userSpaceOnUse" id="color-5"><stop offset="0" stop-color="#e2ae13"/><stop offset="1" stop-color="#b28001"/></linearGradient></defs><g transform="translate(-202.5,-142.5)"><g data-paper-data="{&quot;isPaintingLayer&quot;:true}" fill-rule="nonzero" stroke="none" stroke-width="0" stroke-linecap="butt" stroke-linejoin="miter" stroke-miterlimit="10" stroke-dasharray="" stroke-dashoffset="0" style="mix-blend-mode: normal"><path d="M202.5,180c0,-20.71068 16.78932,-37.5 37.5,-37.5c20.71067,0 37.5,16.78932 37.5,37.5c0,20.71068 -16.78933,37.5 -37.5,37.5c-20.71068,0 -37.5,-16.78932 -37.5,-37.5z" fill="url(#color-1)"/><path d="M237.93167,161.96555c2.67238,-0.73147 7.24056,0.18175 8.8816,4.37001c2.82613,7.21285 2.48346,19.05487 -0.18745,27.26234c-1.4294,4.39241 -5.6435,4.96353 -8.34393,4.55599c-2.33191,-0.35192 -2.6336,-35.56334 -0.35022,-36.18834z" data-paper-data="{&quot;origPos&quot;:null,&quot;origRot&quot;:0}" fill="url(#color-2)"/><path d="M233.15843,193.01575c-2.55088,-6.99868 -2.59759,-18.47691 -0.10434,-25.63734c2.49325,-7.16043 6.58234,-7.29155 9.13321,-0.29287c2.55088,6.99868 2.59759,18.47691 0.10434,25.63734c-2.49325,7.16043 -6.58234,7.29155 -9.13321,0.29287z" data-paper-data="{&quot;origPos&quot;:null,&quot;origRot&quot;:0}" fill="url(#color-3)"/><path d="M234.06728,190.40564c-2.03734,-5.58972 -2.07465,-14.75717 -0.08333,-20.47608c1.99132,-5.71891 5.25719,-5.82363 7.29453,-0.23391c2.03734,5.58972 2.07465,14.75717 0.08333,20.47608c-1.99132,5.71891 -5.25719,5.82363 -7.29453,0.23391z" data-paper-data="{&quot;origPos&quot;:null,&quot;origRot&quot;:0}" fill="url(#color-4)"/><path d="M236.50985,188.74883v-18.39504h2.32091v18.39504z" data-paper-data="{&quot;origPos&quot;:null}" fill="url(#color-5)"/></g></g></svg>